<svg width="0" height="0" class="hidden">
  <symbol xmlns="http://www.w3.org/2000/svg" viewBox="0 0 12.219 28.062" id="GreyArrow">
    <path d="M12.162 21.852l-.707-.707a.124.124 0 0 0-.176 0l-4.561 4.561V.131a.125.125 0 0 0-.124-.12h-1a.125.125 0 0 0-.125.124v25.581L.908 21.155a.124.124 0 0 0-.176 0l-.706.707a.124.124 0 0 0 0 .176L6 28.014a.126.126 0 0 0 .178 0l.706-.707 5.278-5.276a.125.125 0 0 0 0-.179z" fill="#919eb1" fill-rule="evenodd"></path>
  </symbol>
  <symbol xmlns="http://www.w3.org/2000/svg" viewBox="0 0 28.06 12.21" id="GreenArrow">
    <path d="M21.85.02l-.71.71a.15.15 0 0 0 0 .18l4.57 4.56H.14a.124.124 0 0 0-.13.12v1a.124.124 0 0 0 .13.12h25.58l-4.57 4.57a.135.135 0 0 0 0 .17l.71.71a.127.127 0 0 0 .18 0l5.97-5.98a.115.115 0 0 0 0-.17l-.7-.71L22.03.02a.127.127 0 0 0-.18 0z" fill="#1f373d" fill-rule="evenodd"></path>
  </symbol>
  <symbol xmlns="http://www.w3.org/2000/svg" viewBox="0 0 15.875 15.91" id="Dribble">
    <path d="M15.725 6.36a7.953 7.953 0 0 0-1.2-2.84 7.42 7.42 0 0 0-.969-1.17A8.16 8.16 0 0 0 11.031.64a7.962 7.962 0 0 0-8.712 1.71 7.588 7.588 0 0 0-.969 1.17 7.716 7.716 0 0 0-.731 1.35 7.87 7.87 0 0 0-.465 1.49 8.192 8.192 0 0 0-.161 1.6 7.889 7.889 0 0 0 2.326 5.62 7.926 7.926 0 0 0 2.526 1.7 7.189 7.189 0 0 0 1.492.46 7.619 7.619 0 0 0 3.2 0 7.142 7.142 0 0 0 1.493-.46 7.907 7.907 0 0 0 2.525-1.7 7.9 7.9 0 0 0 .969-1.17 8.17 8.17 0 0 0 .732-1.35 7.97 7.97 0 0 0 .625-3.1 7.968 7.968 0 0 0-.156-1.6zm-1 1.53a15.9 15.9 0 0 0-4.724-.22c-.048-.11-.1-.23-.147-.35-.142-.33-.294-.66-.451-.98a8.758 8.758 0 0 0 3.78-2.69 6.779 6.779 0 0 1 1.541 4.24zm-2.3-5.02A7.376 7.376 0 0 1 8.88 5.33a34.249 34.249 0 0 0-2.536-3.96 7.019 7.019 0 0 1 1.6-.19 6.772 6.772 0 0 1 4.48 1.69zm-6.108-1.5v.01h-.02a.026.026 0 0 0 .019-.01zm-1.269.46a40.52 40.52 0 0 1 2.519 3.91 24.786 24.786 0 0 1-6.264.82 6.778 6.778 0 0 1 3.744-4.73zM1.157 7.96c0-.07 0-.14.006-.21a24.871 24.871 0 0 0 6.967-.97c.193.38.38.77.55 1.16-.089.02-.178.05-.268.08a10.715 10.715 0 0 0-5.518 4.47v.01a6.8 6.8 0 0 1-1.738-4.54zm6.786 6.79a6.768 6.768 0 0 1-4.322-1.56 1.342 1.342 0 0 0 .151.12 9.226 9.226 0 0 1 5.325-4.24c.016 0 .031-.01.044-.01a28.059 28.059 0 0 1 1.45 5.15 6.674 6.674 0 0 1-2.649.54zm3.791-1.16a29.522 29.522 0 0 0-1.32-4.85 9.748 9.748 0 0 1 4.229.3 6.792 6.792 0 0 1-2.91 4.55z" fill="#1f373d" fill-rule="evenodd"></path>
  </symbol>
  <symbol xmlns="http://www.w3.org/2000/svg" viewBox="0 0 15.844 12.88" id="Twitter">
    <path d="M15.839 1.54a6.463 6.463 0 0 1-1.864.51 3.255 3.255 0 0 0 1.427-1.8 6.21 6.21 0 0 1-2.062.79 3.253 3.253 0 0 0-5.619 2.23 3.325 3.325 0 0 0 .084.74 9.232 9.232 0 0 1-6.7-3.4 3.255 3.255 0 0 0 1.006 4.34 3.2 3.2 0 0 1-1.472-.41v.04a3.253 3.253 0 0 0 2.606 3.19 3.446 3.446 0 0 1-.857.11 3.078 3.078 0 0 1-.61-.06 3.258 3.258 0 0 0 3.032 2.26 6.516 6.516 0 0 1-4.032 1.39c-.263 0-.52-.02-.776-.04a9.25 9.25 0 0 0 14.222-7.79c0-.14 0-.28-.009-.42a6.633 6.633 0 0 0 1.624-1.68z" fill="#1f373d" fill-rule="evenodd"></path>
  </symbol>
  <symbol xmlns="http://www.w3.org/2000/svg" viewBox="0 0 7.219 15.53" id="Facebook">
    <path d="M7.215 5.04H4.758V3.43a.657.657 0 0 1 .684-.75h1.733V.02L4.786.01a3.021 3.021 0 0 0-3.253 3.25v1.78H0v2.74h1.533v7.76h3.225V7.78h2.176z" fill="#1f373d" fill-rule="evenodd"></path>
  </symbol>
  <symbol xmlns="http://www.w3.org/2000/svg" viewBox="0 0 15.062 14.56" id="Search">
    <path d="M15.078 13.55l-3.569-3.57a6.327 6.327 0 1 0-5.177 2.7 6.35 6.35 0 0 0 4.212-1.61l3.509 3.51zM1.445 6.34a4.887 4.887 0 1 1 4.887 4.89 4.884 4.884 0 0 1-4.887-4.89z" fill="#919eb1" fill-rule="evenodd"></path>
  </symbol>
  <symbol xmlns="http://www.w3.org/2000/svg" viewBox="0 0 16.82 11.38" id="Bed">
    <path d="M15.18 4.41V1.68A1.557 1.557 0 0 0 13.51.01H3.26a1.547 1.547 0 0 0-1.67 1.67v2.73A1.711 1.711 0 0 0 .01 6.28V8.4a.64.64 0 0 0 .64.65h.22v1.67a.649.649 0 0 0 .65.65h.61a.64.64 0 0 0 .64-.65V9.03h11.28v1.69a.64.64 0 0 0 .64.65h.61a.649.649 0 0 0 .65-.65V9.03h.22a.632.632 0 0 0 .64-.64V6.28a1.779 1.779 0 0 0-1.63-1.87zM2.2 1.68h.03A.921.921 0 0 1 3.26.66h10.25a.918.918 0 0 1 1.02 1.02V4.4h-.48V2.85a.649.649 0 0 0-.65-.65H9.44a.64.64 0 0 0-.64.65V4.4h-.76V2.85a.649.649 0 0 0-.65-.65H3.44a.649.649 0 0 0-.65.65V4.4H2.2V1.68zm11.2 1.17V4.4H9.44V2.85h3.96zm-5.97 0V4.4H3.48V2.85h3.95zm-5.32 7.87H1.5V9.03h.61v1.69zm13.16 0h-.61V9.03h.61v1.69zm.84-2.32H.64v-.95h15.47v.95zm0-1.6H.64v-.52a1.128 1.128 0 0 1 1.24-1.24h12.99a1.121 1.121 0 0 1 1.24 1.24v.52z" fill="#0f0f0f" fill-rule="evenodd"></path>
  </symbol>
  <symbol xmlns="http://www.w3.org/2000/svg" viewBox="0 0 9.719 11.5" id="Shower">
    <path d="M7.481 0H4.893A2.249 2.249 0 0 0 2.65 2.25v1.31A3.1 3.1 0 0 0 .003 6.63a.448.448 0 0 0 .448.45h5.294a.449.449 0 0 0 .449-.45 3.1 3.1 0 0 0-2.647-3.07V2.25A1.347 1.347 0 0 1 4.893.9h2.588a1.346 1.346 0 0 1 1.345 1.35v8.79a.45.45 0 1 0 .9 0V2.25A2.25 2.25 0 0 0 7.481 0zm-2.23 6.18H.946a2.2 2.2 0 0 1 4.305 0zm-1.7 1.99v.67a.45.45 0 1 1-.9 0v-.67a.449.449 0 1 1 .896 0zm0 2.2v.67a.45.45 0 1 1-.9 0v-.67a.449.449 0 1 1 .891 0zm-1.757-2.2v.67a.45.45 0 1 1-.9 0v-.67a.449.449 0 1 1 .891 0zm0 2.2v.67a.45.45 0 1 1-.9 0v-.67a.449.449 0 1 1 .886 0zm3.524-2.2v.67a.45.45 0 1 1-.9 0v-.67a.449.449 0 1 1 .886 0zm-.006 2.2v.67a.45.45 0 1 1-.9 0v-.67a.448.448 0 1 1 .886 0z" fill-rule="evenodd"></path>
  </symbol>
  <symbol xmlns="http://www.w3.org/2000/svg" viewBox="0 0 19.15 26" id="Location">
    <path d="M9.58.006A9.58 9.58 0 0 0 .01 9.578a9.263 9.263 0 0 0 .84 3.907c2.39 5.237 6.98 10.766 8.33 12.336a.536.536 0 0 0 .4.185.521.521 0 0 0 .4-.185c1.35-1.57 5.94-7.1 8.34-12.336a9.409 9.409 0 0 0 .83-3.907A9.58 9.58 0 0 0 9.58.006zm0 14.544a4.973 4.973 0 1 1 4.97-4.972 4.977 4.977 0 0 1-4.97 4.972z" fill="#fff" fill-rule="evenodd"></path>
  </symbol>
  <symbol xmlns="http://www.w3.org/2000/svg" viewBox="0 0 24.88 24.781" id="Phone">
    <path d="M24.3 19.618l-3.83-3.838a2 2 0 0 0-2.82.054l-1.94 1.932c-.12-.067-.24-.137-.38-.212a18.111 18.111 0 0 1-8.02-8.02c-.07-.129-.14-.254-.2-.373L8.4 7.866l.64-.638a1.994 1.994 0 0 0 .05-2.821L5.26.57a2 2 0 0 0-2.82.052L1.36 1.709l.02.03a6.474 6.474 0 0 0-.89 1.572A6.9 6.9 0 0 0 .1 4.905c-.51 4.2 1.41 8.038 6.62 13.246 7.2 7.2 13 6.656 13.25 6.629a6.541 6.541 0 0 0 1.6-.4 6.162 6.162 0 0 0 1.56-.888l.03.022 1.09-1.073a2 2 0 0 0 .05-2.823z" fill="#fff" fill-rule="evenodd"></path>
  </symbol>
</svg>